<mxfile host="app.diagrams.net" agent="Mozilla/5.0 (X11; Ubuntu; Linux x86_64; rv:129.0) Gecko/20100101 Firefox/129.0" version="24.7.7">
  <diagram name="Página-1" id="3GNCkzDhLX_rriLsUvqG">
    <mxGraphModel dx="1434" dy="1939" grid="1" gridSize="10" guides="1" tooltips="1" connect="1" arrows="1" fold="1" page="1" pageScale="1" pageWidth="827" pageHeight="1169" math="0" shadow="0">
      <root>
        <mxCell id="0" />
        <mxCell id="1" parent="0" />
        <mxCell id="5-ItGfOnT4rguO7YE8eU-1" value="ALUNOS" style="rounded=0;whiteSpace=wrap;html=1;" parent="1" vertex="1">
          <mxGeometry x="364" y="-30" width="120" height="60" as="geometry" />
        </mxCell>
        <mxCell id="5-ItGfOnT4rguO7YE8eU-2" value="PROFESSORES" style="rounded=0;whiteSpace=wrap;html=1;" parent="1" vertex="1">
          <mxGeometry x="1640" y="-20" width="120" height="60" as="geometry" />
        </mxCell>
        <mxCell id="5-ItGfOnT4rguO7YE8eU-3" value="MÓDULOS" style="rounded=0;whiteSpace=wrap;html=1;" parent="1" vertex="1">
          <mxGeometry x="1010" y="275" width="120" height="60" as="geometry" />
        </mxCell>
        <mxCell id="5-ItGfOnT4rguO7YE8eU-4" value="AULAS" style="rounded=0;whiteSpace=wrap;html=1;" parent="1" vertex="1">
          <mxGeometry x="1030" y="620" width="120" height="60" as="geometry" />
        </mxCell>
        <mxCell id="5-ItGfOnT4rguO7YE8eU-6" value="CURSOS" style="rounded=0;whiteSpace=wrap;html=1;" parent="1" vertex="1">
          <mxGeometry x="1010" y="-20" width="120" height="60" as="geometry" />
        </mxCell>
        <mxCell id="5-ItGfOnT4rguO7YE8eU-7" value="CERTIFICADO" style="rounded=0;whiteSpace=wrap;html=1;" parent="1" vertex="1">
          <mxGeometry x="1580" y="495" width="120" height="60" as="geometry" />
        </mxCell>
        <mxCell id="5-ItGfOnT4rguO7YE8eU-11" value="senha" style="ellipse;whiteSpace=wrap;html=1;" parent="1" vertex="1">
          <mxGeometry x="210" y="-110" width="100" height="40" as="geometry" />
        </mxCell>
        <mxCell id="5-ItGfOnT4rguO7YE8eU-12" value="idade" style="ellipse;whiteSpace=wrap;html=1;" parent="1" vertex="1">
          <mxGeometry x="170" y="-30" width="100" height="40" as="geometry" />
        </mxCell>
        <mxCell id="5-ItGfOnT4rguO7YE8eU-13" value="histórico" style="ellipse;whiteSpace=wrap;html=1;" parent="1" vertex="1">
          <mxGeometry x="450" y="-150" width="100" height="40" as="geometry" />
        </mxCell>
        <mxCell id="5-ItGfOnT4rguO7YE8eU-14" value="status plano" style="ellipse;whiteSpace=wrap;html=1;" parent="1" vertex="1">
          <mxGeometry x="330" y="-150" width="100" height="40" as="geometry" />
        </mxCell>
        <mxCell id="5-ItGfOnT4rguO7YE8eU-15" value="&lt;div&gt;certificados&lt;/div&gt;" style="ellipse;whiteSpace=wrap;html=1;" parent="1" vertex="1">
          <mxGeometry x="480" y="90" width="100" height="40" as="geometry" />
        </mxCell>
        <mxCell id="5-ItGfOnT4rguO7YE8eU-16" value="progresso em cada curso" style="ellipse;whiteSpace=wrap;html=1;" parent="1" vertex="1">
          <mxGeometry x="530" y="-90" width="100" height="40" as="geometry" />
        </mxCell>
        <mxCell id="5-ItGfOnT4rguO7YE8eU-17" value="&lt;div&gt;nome&lt;/div&gt;" style="ellipse;whiteSpace=wrap;html=1;" parent="1" vertex="1">
          <mxGeometry x="300" y="90" width="100" height="40" as="geometry" />
        </mxCell>
        <mxCell id="5-ItGfOnT4rguO7YE8eU-18" value="e-mail" style="ellipse;whiteSpace=wrap;html=1;" parent="1" vertex="1">
          <mxGeometry x="190" y="40" width="100" height="40" as="geometry" />
        </mxCell>
        <mxCell id="5-ItGfOnT4rguO7YE8eU-20" value="&lt;div&gt;nome&lt;/div&gt;" style="ellipse;whiteSpace=wrap;html=1;" parent="1" vertex="1">
          <mxGeometry x="1530" y="70" width="100" height="40" as="geometry" />
        </mxCell>
        <mxCell id="5-ItGfOnT4rguO7YE8eU-21" value="e-mail" style="ellipse;whiteSpace=wrap;html=1;" parent="1" vertex="1">
          <mxGeometry x="1820" y="-20" width="100" height="40" as="geometry" />
        </mxCell>
        <mxCell id="5-ItGfOnT4rguO7YE8eU-22" value="especialização" style="ellipse;whiteSpace=wrap;html=1;" parent="1" vertex="1">
          <mxGeometry x="1730" y="-100" width="100" height="40" as="geometry" />
        </mxCell>
        <mxCell id="5-ItGfOnT4rguO7YE8eU-23" value="cursos ministrados" style="ellipse;whiteSpace=wrap;html=1;" parent="1" vertex="1">
          <mxGeometry x="1520" y="-80" width="100" height="40" as="geometry" />
        </mxCell>
        <mxCell id="5-ItGfOnT4rguO7YE8eU-26" value="feedback dos alunos" style="ellipse;whiteSpace=wrap;html=1;" parent="1" vertex="1">
          <mxGeometry x="1710" y="80" width="100" height="40" as="geometry" />
        </mxCell>
        <mxCell id="5-ItGfOnT4rguO7YE8eU-28" value="&lt;div&gt;nome&lt;/div&gt;" style="ellipse;whiteSpace=wrap;html=1;" parent="1" vertex="1">
          <mxGeometry x="1030" y="-120" width="100" height="40" as="geometry" />
        </mxCell>
        <mxCell id="5-ItGfOnT4rguO7YE8eU-29" value="&lt;div&gt;descrição&lt;/div&gt;" style="ellipse;whiteSpace=wrap;html=1;" parent="1" vertex="1">
          <mxGeometry x="890" y="-110" width="100" height="40" as="geometry" />
        </mxCell>
        <mxCell id="5-ItGfOnT4rguO7YE8eU-30" value="&lt;div&gt;nível&lt;br&gt;&lt;/div&gt;" style="ellipse;whiteSpace=wrap;html=1;" parent="1" vertex="1">
          <mxGeometry x="870" y="40" width="100" height="40" as="geometry" />
        </mxCell>
        <mxCell id="5-ItGfOnT4rguO7YE8eU-31" value="duração" style="ellipse;whiteSpace=wrap;html=1;" parent="1" vertex="1">
          <mxGeometry x="1160" y="60" width="100" height="40" as="geometry" />
        </mxCell>
        <mxCell id="5-ItGfOnT4rguO7YE8eU-32" value="data de lançamento" style="ellipse;whiteSpace=wrap;html=1;" parent="1" vertex="1">
          <mxGeometry x="1141" y="-90" width="100" height="40" as="geometry" />
        </mxCell>
        <mxCell id="5-ItGfOnT4rguO7YE8eU-33" value="&lt;div&gt;nome&lt;/div&gt;" style="ellipse;whiteSpace=wrap;html=1;" parent="1" vertex="1">
          <mxGeometry x="1200" y="235" width="100" height="40" as="geometry" />
        </mxCell>
        <mxCell id="5-ItGfOnT4rguO7YE8eU-34" value="&lt;div&gt;descrição&lt;/div&gt;" style="ellipse;whiteSpace=wrap;html=1;" parent="1" vertex="1">
          <mxGeometry x="827" y="335" width="100" height="40" as="geometry" />
        </mxCell>
        <mxCell id="5-ItGfOnT4rguO7YE8eU-35" value="&lt;div&gt;ordem&lt;br&gt;&lt;/div&gt;dentro do curso" style="ellipse;whiteSpace=wrap;html=1;" parent="1" vertex="1">
          <mxGeometry x="850" y="220" width="100" height="40" as="geometry" />
        </mxCell>
        <mxCell id="5-ItGfOnT4rguO7YE8eU-36" value="aulas" style="ellipse;whiteSpace=wrap;html=1;" parent="1" vertex="1">
          <mxGeometry x="1180" y="350" width="100" height="40" as="geometry" />
        </mxCell>
        <mxCell id="5-ItGfOnT4rguO7YE8eU-38" value="&lt;div&gt;nome&lt;/div&gt;" style="ellipse;whiteSpace=wrap;html=1;" parent="1" vertex="1">
          <mxGeometry x="1080" y="740" width="100" height="40" as="geometry" />
        </mxCell>
        <mxCell id="5-ItGfOnT4rguO7YE8eU-39" value="&lt;div&gt;descrição&lt;/div&gt;" style="ellipse;whiteSpace=wrap;html=1;" parent="1" vertex="1">
          <mxGeometry x="850" y="640" width="100" height="40" as="geometry" />
        </mxCell>
        <mxCell id="5-ItGfOnT4rguO7YE8eU-40" value="tipo (video ou texto)" style="ellipse;whiteSpace=wrap;html=1;" parent="1" vertex="1">
          <mxGeometry x="900" y="565" width="100" height="40" as="geometry" />
        </mxCell>
        <mxCell id="5-ItGfOnT4rguO7YE8eU-41" value="duração" style="ellipse;whiteSpace=wrap;html=1;" parent="1" vertex="1">
          <mxGeometry x="930" y="740" width="100" height="40" as="geometry" />
        </mxCell>
        <mxCell id="5-ItGfOnT4rguO7YE8eU-42" value="&lt;div&gt;ordem dentro&amp;nbsp;&lt;/div&gt;&lt;div&gt;do módulo&lt;/div&gt;" style="ellipse;whiteSpace=wrap;html=1;" parent="1" vertex="1">
          <mxGeometry x="1120" y="530" width="100" height="40" as="geometry" />
        </mxCell>
        <mxCell id="5-ItGfOnT4rguO7YE8eU-43" value="&lt;div&gt;ordem dentro&amp;nbsp;&lt;/div&gt;&lt;div&gt;do módulo&lt;/div&gt;" style="ellipse;whiteSpace=wrap;html=1;" parent="1" vertex="1">
          <mxGeometry x="1200" y="680" width="100" height="40" as="geometry" />
        </mxCell>
        <mxCell id="5-ItGfOnT4rguO7YE8eU-44" value="cód de verificação" style="ellipse;whiteSpace=wrap;html=1;" parent="1" vertex="1">
          <mxGeometry x="1560" y="585" width="100" height="40" as="geometry" />
        </mxCell>
        <mxCell id="5-ItGfOnT4rguO7YE8eU-45" value="data de emissão" style="ellipse;whiteSpace=wrap;html=1;" parent="1" vertex="1">
          <mxGeometry x="1720" y="515" width="100" height="40" as="geometry" />
        </mxCell>
        <mxCell id="5-ItGfOnT4rguO7YE8eU-46" value="nome do aluno" style="ellipse;whiteSpace=wrap;html=1;" parent="1" vertex="1">
          <mxGeometry x="1460" y="445" width="100" height="40" as="geometry" />
        </mxCell>
        <mxCell id="5-ItGfOnT4rguO7YE8eU-47" value="curso concluído" style="ellipse;whiteSpace=wrap;html=1;" parent="1" vertex="1">
          <mxGeometry x="1640" y="430" width="100" height="40" as="geometry" />
        </mxCell>
        <mxCell id="5-ItGfOnT4rguO7YE8eU-48" value="" style="endArrow=none;html=1;rounded=0;" parent="1" source="5-ItGfOnT4rguO7YE8eU-17" target="5-ItGfOnT4rguO7YE8eU-1" edge="1">
          <mxGeometry width="50" height="50" relative="1" as="geometry">
            <mxPoint x="500" y="150" as="sourcePoint" />
            <mxPoint x="550" y="100" as="targetPoint" />
          </mxGeometry>
        </mxCell>
        <mxCell id="5-ItGfOnT4rguO7YE8eU-49" value="" style="endArrow=none;html=1;rounded=0;" parent="1" source="5-ItGfOnT4rguO7YE8eU-18" target="5-ItGfOnT4rguO7YE8eU-1" edge="1">
          <mxGeometry width="50" height="50" relative="1" as="geometry">
            <mxPoint x="290" y="80" as="sourcePoint" />
            <mxPoint x="370" y="40" as="targetPoint" />
          </mxGeometry>
        </mxCell>
        <mxCell id="5-ItGfOnT4rguO7YE8eU-50" value="" style="endArrow=none;html=1;rounded=0;" parent="1" source="5-ItGfOnT4rguO7YE8eU-12" target="5-ItGfOnT4rguO7YE8eU-1" edge="1">
          <mxGeometry width="50" height="50" relative="1" as="geometry">
            <mxPoint x="280" y="-30" as="sourcePoint" />
            <mxPoint x="379" y="-80" as="targetPoint" />
          </mxGeometry>
        </mxCell>
        <mxCell id="5-ItGfOnT4rguO7YE8eU-51" value="" style="endArrow=none;html=1;rounded=0;" parent="1" source="5-ItGfOnT4rguO7YE8eU-11" target="5-ItGfOnT4rguO7YE8eU-1" edge="1">
          <mxGeometry width="50" height="50" relative="1" as="geometry">
            <mxPoint x="310" y="-76" as="sourcePoint" />
            <mxPoint x="404" y="-64" as="targetPoint" />
          </mxGeometry>
        </mxCell>
        <mxCell id="5-ItGfOnT4rguO7YE8eU-52" value="" style="endArrow=none;html=1;rounded=0;" parent="1" source="5-ItGfOnT4rguO7YE8eU-14" target="5-ItGfOnT4rguO7YE8eU-1" edge="1">
          <mxGeometry width="50" height="50" relative="1" as="geometry">
            <mxPoint x="364" y="-110" as="sourcePoint" />
            <mxPoint x="458" y="-98" as="targetPoint" />
          </mxGeometry>
        </mxCell>
        <mxCell id="5-ItGfOnT4rguO7YE8eU-53" value="" style="endArrow=none;html=1;rounded=0;" parent="1" source="5-ItGfOnT4rguO7YE8eU-13" target="5-ItGfOnT4rguO7YE8eU-1" edge="1">
          <mxGeometry width="50" height="50" relative="1" as="geometry">
            <mxPoint x="430" y="-106" as="sourcePoint" />
            <mxPoint x="524" y="-94" as="targetPoint" />
          </mxGeometry>
        </mxCell>
        <mxCell id="5-ItGfOnT4rguO7YE8eU-54" value="" style="endArrow=none;html=1;rounded=0;entryX=0.372;entryY=0.035;entryDx=0;entryDy=0;entryPerimeter=0;" parent="1" source="5-ItGfOnT4rguO7YE8eU-1" target="5-ItGfOnT4rguO7YE8eU-15" edge="1">
          <mxGeometry width="50" height="50" relative="1" as="geometry">
            <mxPoint x="309" y="7" as="sourcePoint" />
            <mxPoint x="403" y="19" as="targetPoint" />
          </mxGeometry>
        </mxCell>
        <mxCell id="5-ItGfOnT4rguO7YE8eU-55" value="" style="endArrow=none;html=1;rounded=0;" parent="1" source="5-ItGfOnT4rguO7YE8eU-16" target="5-ItGfOnT4rguO7YE8eU-1" edge="1">
          <mxGeometry width="50" height="50" relative="1" as="geometry">
            <mxPoint x="532" y="-80" as="sourcePoint" />
            <mxPoint x="530" y="-9" as="targetPoint" />
          </mxGeometry>
        </mxCell>
        <mxCell id="5-ItGfOnT4rguO7YE8eU-56" value="" style="endArrow=none;html=1;rounded=0;" parent="1" source="5-ItGfOnT4rguO7YE8eU-29" target="5-ItGfOnT4rguO7YE8eU-6" edge="1">
          <mxGeometry width="50" height="50" relative="1" as="geometry">
            <mxPoint x="820" y="-180" as="sourcePoint" />
            <mxPoint x="870" y="-230" as="targetPoint" />
          </mxGeometry>
        </mxCell>
        <mxCell id="5-ItGfOnT4rguO7YE8eU-57" value="" style="endArrow=none;html=1;rounded=0;" parent="1" source="5-ItGfOnT4rguO7YE8eU-30" target="5-ItGfOnT4rguO7YE8eU-6" edge="1">
          <mxGeometry width="50" height="50" relative="1" as="geometry">
            <mxPoint x="847" y="-167" as="sourcePoint" />
            <mxPoint x="880" y="-171" as="targetPoint" />
          </mxGeometry>
        </mxCell>
        <mxCell id="5-ItGfOnT4rguO7YE8eU-58" value="" style="endArrow=none;html=1;rounded=0;" parent="1" source="5-ItGfOnT4rguO7YE8eU-6" target="5-ItGfOnT4rguO7YE8eU-31" edge="1">
          <mxGeometry width="50" height="50" relative="1" as="geometry">
            <mxPoint x="857" y="-157" as="sourcePoint" />
            <mxPoint x="890" y="-161" as="targetPoint" />
          </mxGeometry>
        </mxCell>
        <mxCell id="5-ItGfOnT4rguO7YE8eU-59" value="" style="endArrow=none;html=1;rounded=0;" parent="1" source="5-ItGfOnT4rguO7YE8eU-6" target="5-ItGfOnT4rguO7YE8eU-32" edge="1">
          <mxGeometry width="50" height="50" relative="1" as="geometry">
            <mxPoint x="867" y="-147" as="sourcePoint" />
            <mxPoint x="900" y="-151" as="targetPoint" />
          </mxGeometry>
        </mxCell>
        <mxCell id="5-ItGfOnT4rguO7YE8eU-60" value="" style="endArrow=none;html=1;rounded=0;" parent="1" source="5-ItGfOnT4rguO7YE8eU-28" target="5-ItGfOnT4rguO7YE8eU-6" edge="1">
          <mxGeometry width="50" height="50" relative="1" as="geometry">
            <mxPoint x="910" y="-146" as="sourcePoint" />
            <mxPoint x="943" y="-150" as="targetPoint" />
          </mxGeometry>
        </mxCell>
        <mxCell id="5-ItGfOnT4rguO7YE8eU-61" value="" style="endArrow=none;html=1;rounded=0;" parent="1" source="5-ItGfOnT4rguO7YE8eU-26" target="5-ItGfOnT4rguO7YE8eU-2" edge="1">
          <mxGeometry width="50" height="50" relative="1" as="geometry">
            <mxPoint x="1700" y="-160" as="sourcePoint" />
            <mxPoint x="1750" y="-210" as="targetPoint" />
          </mxGeometry>
        </mxCell>
        <mxCell id="5-ItGfOnT4rguO7YE8eU-62" value="" style="endArrow=none;html=1;rounded=0;" parent="1" source="5-ItGfOnT4rguO7YE8eU-2" target="5-ItGfOnT4rguO7YE8eU-23" edge="1">
          <mxGeometry width="50" height="50" relative="1" as="geometry">
            <mxPoint x="1700" y="-160" as="sourcePoint" />
            <mxPoint x="1750" y="-210" as="targetPoint" />
          </mxGeometry>
        </mxCell>
        <mxCell id="5-ItGfOnT4rguO7YE8eU-63" value="" style="endArrow=none;html=1;rounded=0;" parent="1" source="5-ItGfOnT4rguO7YE8eU-2" target="5-ItGfOnT4rguO7YE8eU-22" edge="1">
          <mxGeometry width="50" height="50" relative="1" as="geometry">
            <mxPoint x="1257" y="133" as="sourcePoint" />
            <mxPoint x="1290" y="129" as="targetPoint" />
          </mxGeometry>
        </mxCell>
        <mxCell id="5-ItGfOnT4rguO7YE8eU-64" value="" style="endArrow=none;html=1;rounded=0;" parent="1" source="5-ItGfOnT4rguO7YE8eU-2" target="5-ItGfOnT4rguO7YE8eU-21" edge="1">
          <mxGeometry width="50" height="50" relative="1" as="geometry">
            <mxPoint x="1804" y="-220" as="sourcePoint" />
            <mxPoint x="1817" y="-310" as="targetPoint" />
          </mxGeometry>
        </mxCell>
        <mxCell id="5-ItGfOnT4rguO7YE8eU-65" value="" style="endArrow=none;html=1;rounded=0;" parent="1" source="5-ItGfOnT4rguO7YE8eU-2" target="5-ItGfOnT4rguO7YE8eU-20" edge="1">
          <mxGeometry width="50" height="50" relative="1" as="geometry">
            <mxPoint x="1814" y="-210" as="sourcePoint" />
            <mxPoint x="1827" y="-300" as="targetPoint" />
          </mxGeometry>
        </mxCell>
        <mxCell id="5-ItGfOnT4rguO7YE8eU-66" value="" style="endArrow=none;html=1;rounded=0;" parent="1" source="5-ItGfOnT4rguO7YE8eU-33" target="5-ItGfOnT4rguO7YE8eU-3" edge="1">
          <mxGeometry width="50" height="50" relative="1" as="geometry">
            <mxPoint x="1200" y="560" as="sourcePoint" />
            <mxPoint x="1250" y="510" as="targetPoint" />
          </mxGeometry>
        </mxCell>
        <mxCell id="5-ItGfOnT4rguO7YE8eU-67" value="" style="endArrow=none;html=1;rounded=0;" parent="1" source="5-ItGfOnT4rguO7YE8eU-34" target="5-ItGfOnT4rguO7YE8eU-3" edge="1">
          <mxGeometry width="50" height="50" relative="1" as="geometry">
            <mxPoint x="1125" y="600" as="sourcePoint" />
            <mxPoint x="1128" y="565" as="targetPoint" />
          </mxGeometry>
        </mxCell>
        <mxCell id="5-ItGfOnT4rguO7YE8eU-68" value="" style="endArrow=none;html=1;rounded=0;" parent="1" source="5-ItGfOnT4rguO7YE8eU-35" target="5-ItGfOnT4rguO7YE8eU-3" edge="1">
          <mxGeometry width="50" height="50" relative="1" as="geometry">
            <mxPoint x="1135" y="610" as="sourcePoint" />
            <mxPoint x="1138" y="575" as="targetPoint" />
          </mxGeometry>
        </mxCell>
        <mxCell id="5-ItGfOnT4rguO7YE8eU-69" value="" style="endArrow=none;html=1;rounded=0;" parent="1" source="5-ItGfOnT4rguO7YE8eU-3" target="5-ItGfOnT4rguO7YE8eU-36" edge="1">
          <mxGeometry width="50" height="50" relative="1" as="geometry">
            <mxPoint x="1145" y="620" as="sourcePoint" />
            <mxPoint x="1148" y="585" as="targetPoint" />
          </mxGeometry>
        </mxCell>
        <mxCell id="5-ItGfOnT4rguO7YE8eU-70" value="" style="endArrow=none;html=1;rounded=0;" parent="1" source="5-ItGfOnT4rguO7YE8eU-45" target="5-ItGfOnT4rguO7YE8eU-7" edge="1">
          <mxGeometry width="50" height="50" relative="1" as="geometry">
            <mxPoint x="1155" y="630" as="sourcePoint" />
            <mxPoint x="1158" y="595" as="targetPoint" />
          </mxGeometry>
        </mxCell>
        <mxCell id="5-ItGfOnT4rguO7YE8eU-71" value="" style="endArrow=none;html=1;rounded=0;" parent="1" source="5-ItGfOnT4rguO7YE8eU-46" target="5-ItGfOnT4rguO7YE8eU-7" edge="1">
          <mxGeometry width="50" height="50" relative="1" as="geometry">
            <mxPoint x="1551" y="574" as="sourcePoint" />
            <mxPoint x="1576" y="567" as="targetPoint" />
          </mxGeometry>
        </mxCell>
        <mxCell id="5-ItGfOnT4rguO7YE8eU-72" value="" style="endArrow=none;html=1;rounded=0;" parent="1" source="5-ItGfOnT4rguO7YE8eU-7" target="5-ItGfOnT4rguO7YE8eU-47" edge="1">
          <mxGeometry width="50" height="50" relative="1" as="geometry">
            <mxPoint x="1561" y="584" as="sourcePoint" />
            <mxPoint x="1586" y="577" as="targetPoint" />
          </mxGeometry>
        </mxCell>
        <mxCell id="5-ItGfOnT4rguO7YE8eU-73" value="" style="endArrow=none;html=1;rounded=0;" parent="1" source="5-ItGfOnT4rguO7YE8eU-44" target="5-ItGfOnT4rguO7YE8eU-7" edge="1">
          <mxGeometry width="50" height="50" relative="1" as="geometry">
            <mxPoint x="1571" y="594" as="sourcePoint" />
            <mxPoint x="1596" y="587" as="targetPoint" />
          </mxGeometry>
        </mxCell>
        <mxCell id="5-ItGfOnT4rguO7YE8eU-74" value="" style="endArrow=none;html=1;rounded=0;" parent="1" source="5-ItGfOnT4rguO7YE8eU-38" target="5-ItGfOnT4rguO7YE8eU-4" edge="1">
          <mxGeometry width="50" height="50" relative="1" as="geometry">
            <mxPoint x="1150" y="730" as="sourcePoint" />
            <mxPoint x="1200" y="680" as="targetPoint" />
          </mxGeometry>
        </mxCell>
        <mxCell id="5-ItGfOnT4rguO7YE8eU-75" value="" style="endArrow=none;html=1;rounded=0;" parent="1" source="5-ItGfOnT4rguO7YE8eU-40" target="5-ItGfOnT4rguO7YE8eU-4" edge="1">
          <mxGeometry width="50" height="50" relative="1" as="geometry">
            <mxPoint x="81" y="984" as="sourcePoint" />
            <mxPoint x="106" y="977" as="targetPoint" />
          </mxGeometry>
        </mxCell>
        <mxCell id="5-ItGfOnT4rguO7YE8eU-76" value="" style="endArrow=none;html=1;rounded=0;" parent="1" source="5-ItGfOnT4rguO7YE8eU-39" target="5-ItGfOnT4rguO7YE8eU-4" edge="1">
          <mxGeometry width="50" height="50" relative="1" as="geometry">
            <mxPoint x="1038" y="670" as="sourcePoint" />
            <mxPoint x="1070" y="684" as="targetPoint" />
          </mxGeometry>
        </mxCell>
        <mxCell id="5-ItGfOnT4rguO7YE8eU-77" value="" style="endArrow=none;html=1;rounded=0;" parent="1" source="5-ItGfOnT4rguO7YE8eU-41" target="5-ItGfOnT4rguO7YE8eU-4" edge="1">
          <mxGeometry width="50" height="50" relative="1" as="geometry">
            <mxPoint x="1048" y="680" as="sourcePoint" />
            <mxPoint x="1080" y="690" as="targetPoint" />
          </mxGeometry>
        </mxCell>
        <mxCell id="5-ItGfOnT4rguO7YE8eU-78" value="" style="endArrow=none;html=1;rounded=0;" parent="1" source="5-ItGfOnT4rguO7YE8eU-4" target="5-ItGfOnT4rguO7YE8eU-42" edge="1">
          <mxGeometry width="50" height="50" relative="1" as="geometry">
            <mxPoint x="1058" y="690" as="sourcePoint" />
            <mxPoint x="1090" y="704" as="targetPoint" />
          </mxGeometry>
        </mxCell>
        <mxCell id="5-ItGfOnT4rguO7YE8eU-79" value="&amp;nbsp;" style="endArrow=none;html=1;rounded=0;" parent="1" source="5-ItGfOnT4rguO7YE8eU-4" target="5-ItGfOnT4rguO7YE8eU-43" edge="1">
          <mxGeometry width="50" height="50" relative="1" as="geometry">
            <mxPoint x="1068" y="700" as="sourcePoint" />
            <mxPoint x="1100" y="714" as="targetPoint" />
          </mxGeometry>
        </mxCell>
        <mxCell id="5-ItGfOnT4rguO7YE8eU-80" value="estudam" style="rhombus;whiteSpace=wrap;html=1;" parent="1" vertex="1">
          <mxGeometry x="620" y="-40" width="230" height="80" as="geometry" />
        </mxCell>
        <mxCell id="5-ItGfOnT4rguO7YE8eU-81" value="" style="endArrow=none;html=1;rounded=0;" parent="1" source="5-ItGfOnT4rguO7YE8eU-1" target="5-ItGfOnT4rguO7YE8eU-80" edge="1">
          <mxGeometry width="50" height="50" relative="1" as="geometry">
            <mxPoint x="1120" y="140" as="sourcePoint" />
            <mxPoint x="1170" y="90" as="targetPoint" />
          </mxGeometry>
        </mxCell>
        <mxCell id="5-ItGfOnT4rguO7YE8eU-82" value="" style="endArrow=none;html=1;rounded=0;" parent="1" source="5-ItGfOnT4rguO7YE8eU-6" target="5-ItGfOnT4rguO7YE8eU-80" edge="1">
          <mxGeometry width="50" height="50" relative="1" as="geometry">
            <mxPoint x="494" y="10" as="sourcePoint" />
            <mxPoint x="630" y="10" as="targetPoint" />
          </mxGeometry>
        </mxCell>
        <mxCell id="5-ItGfOnT4rguO7YE8eU-83" value="ministram" style="rhombus;whiteSpace=wrap;html=1;" parent="1" vertex="1">
          <mxGeometry x="1260" y="-40" width="230" height="80" as="geometry" />
        </mxCell>
        <mxCell id="5-ItGfOnT4rguO7YE8eU-84" value="" style="endArrow=none;html=1;rounded=0;" parent="1" source="5-ItGfOnT4rguO7YE8eU-83" target="5-ItGfOnT4rguO7YE8eU-6" edge="1">
          <mxGeometry width="50" height="50" relative="1" as="geometry">
            <mxPoint x="1120" y="140" as="sourcePoint" />
            <mxPoint x="1170" y="90" as="targetPoint" />
          </mxGeometry>
        </mxCell>
        <mxCell id="5-ItGfOnT4rguO7YE8eU-85" value="" style="endArrow=none;html=1;rounded=0;" parent="1" source="5-ItGfOnT4rguO7YE8eU-2" target="5-ItGfOnT4rguO7YE8eU-83" edge="1">
          <mxGeometry width="50" height="50" relative="1" as="geometry">
            <mxPoint x="1120" y="140" as="sourcePoint" />
            <mxPoint x="1170" y="90" as="targetPoint" />
          </mxGeometry>
        </mxCell>
        <mxCell id="5-ItGfOnT4rguO7YE8eU-86" value="contém" style="shape=rhombus;double=1;perimeter=rhombusPerimeter;whiteSpace=wrap;html=1;align=center;" parent="1" vertex="1">
          <mxGeometry x="1010" y="130" width="120" height="60" as="geometry" />
        </mxCell>
        <mxCell id="5-ItGfOnT4rguO7YE8eU-89" value="" style="endArrow=none;html=1;rounded=0;" parent="1" source="5-ItGfOnT4rguO7YE8eU-86" target="5-ItGfOnT4rguO7YE8eU-6" edge="1">
          <mxGeometry width="50" height="50" relative="1" as="geometry">
            <mxPoint x="1045" y="115" as="sourcePoint" />
            <mxPoint x="1095" y="65" as="targetPoint" />
          </mxGeometry>
        </mxCell>
        <mxCell id="5-ItGfOnT4rguO7YE8eU-90" value="" style="endArrow=none;html=1;rounded=0;" parent="1" source="5-ItGfOnT4rguO7YE8eU-3" target="5-ItGfOnT4rguO7YE8eU-86" edge="1">
          <mxGeometry width="50" height="50" relative="1" as="geometry">
            <mxPoint x="1250" y="370" as="sourcePoint" />
            <mxPoint x="1300" y="320" as="targetPoint" />
          </mxGeometry>
        </mxCell>
        <mxCell id="5-ItGfOnT4rguO7YE8eU-91" value="contém" style="shape=rhombus;double=1;perimeter=rhombusPerimeter;whiteSpace=wrap;html=1;align=center;" parent="1" vertex="1">
          <mxGeometry x="1010" y="435" width="120" height="60" as="geometry" />
        </mxCell>
        <mxCell id="5-ItGfOnT4rguO7YE8eU-92" value="" style="endArrow=none;html=1;rounded=0;" parent="1" source="5-ItGfOnT4rguO7YE8eU-91" target="5-ItGfOnT4rguO7YE8eU-3" edge="1">
          <mxGeometry width="50" height="50" relative="1" as="geometry">
            <mxPoint x="1020" y="520" as="sourcePoint" />
            <mxPoint x="1060" y="370" as="targetPoint" />
          </mxGeometry>
        </mxCell>
        <mxCell id="5-ItGfOnT4rguO7YE8eU-93" value="" style="endArrow=none;html=1;rounded=0;" parent="1" source="5-ItGfOnT4rguO7YE8eU-4" target="5-ItGfOnT4rguO7YE8eU-91" edge="1">
          <mxGeometry width="50" height="50" relative="1" as="geometry">
            <mxPoint x="1020" y="520" as="sourcePoint" />
            <mxPoint x="1070" y="470" as="targetPoint" />
          </mxGeometry>
        </mxCell>
        <mxCell id="5-ItGfOnT4rguO7YE8eU-94" value="ministram" style="rhombus;whiteSpace=wrap;html=1;" parent="1" vertex="1">
          <mxGeometry x="1260" y="544.5" width="230" height="80" as="geometry" />
        </mxCell>
        <mxCell id="5-ItGfOnT4rguO7YE8eU-95" value="" style="endArrow=none;html=1;rounded=0;" parent="1" source="5-ItGfOnT4rguO7YE8eU-4" target="5-ItGfOnT4rguO7YE8eU-94" edge="1">
          <mxGeometry width="50" height="50" relative="1" as="geometry">
            <mxPoint x="1230" y="420" as="sourcePoint" />
            <mxPoint x="1280" y="370" as="targetPoint" />
          </mxGeometry>
        </mxCell>
        <mxCell id="5-ItGfOnT4rguO7YE8eU-96" value="" style="endArrow=none;html=1;rounded=0;" parent="1" source="5-ItGfOnT4rguO7YE8eU-7" target="5-ItGfOnT4rguO7YE8eU-94" edge="1">
          <mxGeometry width="50" height="50" relative="1" as="geometry">
            <mxPoint x="1230" y="420" as="sourcePoint" />
            <mxPoint x="1280" y="370" as="targetPoint" />
          </mxGeometry>
        </mxCell>
      </root>
    </mxGraphModel>
  </diagram>
</mxfile>
